<mxfile host="65bd71144e">
    <diagram id="xLZgdI2yFLOI8GIPa52g" name="Page-1">
        <mxGraphModel dx="1535" dy="790" grid="1" gridSize="10" guides="1" tooltips="1" connect="1" arrows="1" fold="1" page="1" pageScale="1" pageWidth="827" pageHeight="1169" math="0" shadow="0">
            <root>
                <mxCell id="0"/>
                <mxCell id="1" parent="0"/>
                <mxCell id="btQaIZ2AwmgtmuhM0MhC-1" value="Beers" style="swimlane;fontStyle=1;align=center;verticalAlign=top;childLayout=stackLayout;horizontal=1;startSize=26;horizontalStack=0;resizeParent=1;resizeParentMax=0;resizeLast=0;collapsible=1;marginBottom=0;" parent="1" vertex="1">
                    <mxGeometry x="334" y="250" width="160" height="554" as="geometry"/>
                </mxCell>
                <mxCell id="SImTDQgY7ZbXBonXEjlb-47" value="- id: string" style="text;strokeColor=none;fillColor=none;align=left;verticalAlign=top;spacingLeft=4;spacingRight=4;overflow=hidden;rotatable=0;points=[[0,0.5],[1,0.5]];portConstraint=eastwest;" parent="btQaIZ2AwmgtmuhM0MhC-1" vertex="1">
                    <mxGeometry y="26" width="160" height="26" as="geometry"/>
                </mxCell>
                <mxCell id="SImTDQgY7ZbXBonXEjlb-1" value="- name: string" style="text;strokeColor=none;fillColor=none;align=left;verticalAlign=top;spacingLeft=4;spacingRight=4;overflow=hidden;rotatable=0;points=[[0,0.5],[1,0.5]];portConstraint=eastwest;" parent="btQaIZ2AwmgtmuhM0MhC-1" vertex="1">
                    <mxGeometry y="52" width="160" height="26" as="geometry"/>
                </mxCell>
                <mxCell id="SImTDQgY7ZbXBonXEjlb-2" value="- secName: string" style="text;strokeColor=none;fillColor=none;align=left;verticalAlign=top;spacingLeft=4;spacingRight=4;overflow=hidden;rotatable=0;points=[[0,0.5],[1,0.5]];portConstraint=eastwest;" parent="btQaIZ2AwmgtmuhM0MhC-1" vertex="1">
                    <mxGeometry y="78" width="160" height="26" as="geometry"/>
                </mxCell>
                <mxCell id="SImTDQgY7ZbXBonXEjlb-3" value="- alcDegree: int" style="text;strokeColor=none;fillColor=none;align=left;verticalAlign=top;spacingLeft=4;spacingRight=4;overflow=hidden;rotatable=0;points=[[0,0.5],[1,0.5]];portConstraint=eastwest;" parent="btQaIZ2AwmgtmuhM0MhC-1" vertex="1">
                    <mxGeometry y="104" width="160" height="26" as="geometry"/>
                </mxCell>
                <mxCell id="SImTDQgY7ZbXBonXEjlb-4" value="- desc: string" style="text;strokeColor=none;fillColor=none;align=left;verticalAlign=top;spacingLeft=4;spacingRight=4;overflow=hidden;rotatable=0;points=[[0,0.5],[1,0.5]];portConstraint=eastwest;" parent="btQaIZ2AwmgtmuhM0MhC-1" vertex="1">
                    <mxGeometry y="130" width="160" height="26" as="geometry"/>
                </mxCell>
                <mxCell id="SImTDQgY7ZbXBonXEjlb-49" value="- ibu: int" style="text;strokeColor=none;fillColor=none;align=left;verticalAlign=top;spacingLeft=4;spacingRight=4;overflow=hidden;rotatable=0;points=[[0,0.5],[1,0.5]];portConstraint=eastwest;" parent="btQaIZ2AwmgtmuhM0MhC-1" vertex="1">
                    <mxGeometry y="156" width="160" height="26" as="geometry"/>
                </mxCell>
                <mxCell id="SImTDQgY7ZbXBonXEjlb-51" value="- temp: string" style="text;strokeColor=none;fillColor=none;align=left;verticalAlign=top;spacingLeft=4;spacingRight=4;overflow=hidden;rotatable=0;points=[[0,0.5],[1,0.5]];portConstraint=eastwest;" parent="btQaIZ2AwmgtmuhM0MhC-1" vertex="1">
                    <mxGeometry y="182" width="160" height="26" as="geometry"/>
                </mxCell>
                <mxCell id="2" value="- voyez: string" style="text;strokeColor=none;fillColor=none;align=left;verticalAlign=top;spacingLeft=4;spacingRight=4;overflow=hidden;rotatable=0;points=[[0,0.5],[1,0.5]];portConstraint=eastwest;" vertex="1" parent="btQaIZ2AwmgtmuhM0MhC-1">
                    <mxGeometry y="208" width="160" height="26" as="geometry"/>
                </mxCell>
                <mxCell id="3" value="- sentez: string" style="text;strokeColor=none;fillColor=none;align=left;verticalAlign=top;spacingLeft=4;spacingRight=4;overflow=hidden;rotatable=0;points=[[0,0.5],[1,0.5]];portConstraint=eastwest;" vertex="1" parent="btQaIZ2AwmgtmuhM0MhC-1">
                    <mxGeometry y="234" width="160" height="26" as="geometry"/>
                </mxCell>
                <mxCell id="4" value="- goutez: string" style="text;strokeColor=none;fillColor=none;align=left;verticalAlign=top;spacingLeft=4;spacingRight=4;overflow=hidden;rotatable=0;points=[[0,0.5],[1,0.5]];portConstraint=eastwest;" vertex="1" parent="btQaIZ2AwmgtmuhM0MhC-1">
                    <mxGeometry y="260" width="160" height="26" as="geometry"/>
                </mxCell>
                <mxCell id="btQaIZ2AwmgtmuhM0MhC-3" value="" style="line;strokeWidth=1;fillColor=none;align=left;verticalAlign=middle;spacingTop=-1;spacingLeft=3;spacingRight=3;rotatable=0;labelPosition=right;points=[];portConstraint=eastwest;" parent="btQaIZ2AwmgtmuhM0MhC-1" vertex="1">
                    <mxGeometry y="286" width="160" height="8" as="geometry"/>
                </mxCell>
                <mxCell id="B0UJuBFFb7fX5z1xrysJ-1" value="+ getId(): string" style="text;strokeColor=none;fillColor=none;align=left;verticalAlign=top;spacingLeft=4;spacingRight=4;overflow=hidden;rotatable=0;points=[[0,0.5],[1,0.5]];portConstraint=eastwest;" parent="btQaIZ2AwmgtmuhM0MhC-1" vertex="1">
                    <mxGeometry y="294" width="160" height="26" as="geometry"/>
                </mxCell>
                <mxCell id="B0UJuBFFb7fX5z1xrysJ-2" value="+ getName(): string" style="text;strokeColor=none;fillColor=none;align=left;verticalAlign=top;spacingLeft=4;spacingRight=4;overflow=hidden;rotatable=0;points=[[0,0.5],[1,0.5]];portConstraint=eastwest;" parent="btQaIZ2AwmgtmuhM0MhC-1" vertex="1">
                    <mxGeometry y="320" width="160" height="26" as="geometry"/>
                </mxCell>
                <mxCell id="B0UJuBFFb7fX5z1xrysJ-3" value="+ getSecName(): string" style="text;strokeColor=none;fillColor=none;align=left;verticalAlign=top;spacingLeft=4;spacingRight=4;overflow=hidden;rotatable=0;points=[[0,0.5],[1,0.5]];portConstraint=eastwest;" parent="btQaIZ2AwmgtmuhM0MhC-1" vertex="1">
                    <mxGeometry y="346" width="160" height="26" as="geometry"/>
                </mxCell>
                <mxCell id="B0UJuBFFb7fX5z1xrysJ-4" value="+ getAlcDegree(): int" style="text;strokeColor=none;fillColor=none;align=left;verticalAlign=top;spacingLeft=4;spacingRight=4;overflow=hidden;rotatable=0;points=[[0,0.5],[1,0.5]];portConstraint=eastwest;" parent="btQaIZ2AwmgtmuhM0MhC-1" vertex="1">
                    <mxGeometry y="372" width="160" height="26" as="geometry"/>
                </mxCell>
                <mxCell id="B0UJuBFFb7fX5z1xrysJ-5" value="+ getDesc(): string" style="text;strokeColor=none;fillColor=none;align=left;verticalAlign=top;spacingLeft=4;spacingRight=4;overflow=hidden;rotatable=0;points=[[0,0.5],[1,0.5]];portConstraint=eastwest;" parent="btQaIZ2AwmgtmuhM0MhC-1" vertex="1">
                    <mxGeometry y="398" width="160" height="26" as="geometry"/>
                </mxCell>
                <mxCell id="B0UJuBFFb7fX5z1xrysJ-6" value="+ getIbu(): int" style="text;strokeColor=none;fillColor=none;align=left;verticalAlign=top;spacingLeft=4;spacingRight=4;overflow=hidden;rotatable=0;points=[[0,0.5],[1,0.5]];portConstraint=eastwest;" parent="btQaIZ2AwmgtmuhM0MhC-1" vertex="1">
                    <mxGeometry y="424" width="160" height="26" as="geometry"/>
                </mxCell>
                <mxCell id="B0UJuBFFb7fX5z1xrysJ-7" value="+ getTemp(): string" style="text;strokeColor=none;fillColor=none;align=left;verticalAlign=top;spacingLeft=4;spacingRight=4;overflow=hidden;rotatable=0;points=[[0,0.5],[1,0.5]];portConstraint=eastwest;" parent="btQaIZ2AwmgtmuhM0MhC-1" vertex="1">
                    <mxGeometry y="450" width="160" height="26" as="geometry"/>
                </mxCell>
                <mxCell id="5" value="+ getVoyez(): string" style="text;strokeColor=none;fillColor=none;align=left;verticalAlign=top;spacingLeft=4;spacingRight=4;overflow=hidden;rotatable=0;points=[[0,0.5],[1,0.5]];portConstraint=eastwest;" vertex="1" parent="btQaIZ2AwmgtmuhM0MhC-1">
                    <mxGeometry y="476" width="160" height="26" as="geometry"/>
                </mxCell>
                <mxCell id="6" value="+ getSentez(): string" style="text;strokeColor=none;fillColor=none;align=left;verticalAlign=top;spacingLeft=4;spacingRight=4;overflow=hidden;rotatable=0;points=[[0,0.5],[1,0.5]];portConstraint=eastwest;" vertex="1" parent="btQaIZ2AwmgtmuhM0MhC-1">
                    <mxGeometry y="502" width="160" height="26" as="geometry"/>
                </mxCell>
                <mxCell id="7" value="+ getGoutez: string" style="text;strokeColor=none;fillColor=none;align=left;verticalAlign=top;spacingLeft=4;spacingRight=4;overflow=hidden;rotatable=0;points=[[0,0.5],[1,0.5]];portConstraint=eastwest;" vertex="1" parent="btQaIZ2AwmgtmuhM0MhC-1">
                    <mxGeometry y="528" width="160" height="26" as="geometry"/>
                </mxCell>
                <mxCell id="SImTDQgY7ZbXBonXEjlb-8" value="Blonde" style="swimlane;fontStyle=1;align=center;verticalAlign=top;childLayout=stackLayout;horizontal=1;startSize=26;horizontalStack=0;resizeParent=1;resizeParentMax=0;resizeLast=0;collapsible=1;marginBottom=0;" parent="1" vertex="1">
                    <mxGeometry x="54" y="930" width="160" height="34" as="geometry"/>
                </mxCell>
                <mxCell id="SImTDQgY7ZbXBonXEjlb-14" value="" style="line;strokeWidth=1;fillColor=none;align=left;verticalAlign=middle;spacingTop=-1;spacingLeft=3;spacingRight=3;rotatable=0;labelPosition=right;points=[];portConstraint=eastwest;" parent="SImTDQgY7ZbXBonXEjlb-8" vertex="1">
                    <mxGeometry y="26" width="160" height="8" as="geometry"/>
                </mxCell>
                <mxCell id="SImTDQgY7ZbXBonXEjlb-16" value="Brune" style="swimlane;fontStyle=1;align=center;verticalAlign=top;childLayout=stackLayout;horizontal=1;startSize=26;horizontalStack=0;resizeParent=1;resizeParentMax=0;resizeLast=0;collapsible=1;marginBottom=0;" parent="1" vertex="1">
                    <mxGeometry x="334" y="930" width="160" height="34" as="geometry"/>
                </mxCell>
                <mxCell id="SImTDQgY7ZbXBonXEjlb-22" value="" style="line;strokeWidth=1;fillColor=none;align=left;verticalAlign=middle;spacingTop=-1;spacingLeft=3;spacingRight=3;rotatable=0;labelPosition=right;points=[];portConstraint=eastwest;" parent="SImTDQgY7ZbXBonXEjlb-16" vertex="1">
                    <mxGeometry y="26" width="160" height="8" as="geometry"/>
                </mxCell>
                <mxCell id="SImTDQgY7ZbXBonXEjlb-24" value="Blanche" style="swimlane;fontStyle=1;align=center;verticalAlign=top;childLayout=stackLayout;horizontal=1;startSize=26;horizontalStack=0;resizeParent=1;resizeParentMax=0;resizeLast=0;collapsible=1;marginBottom=0;" parent="1" vertex="1">
                    <mxGeometry x="614" y="930" width="160" height="34" as="geometry"/>
                </mxCell>
                <mxCell id="SImTDQgY7ZbXBonXEjlb-30" value="" style="line;strokeWidth=1;fillColor=none;align=left;verticalAlign=middle;spacingTop=-1;spacingLeft=3;spacingRight=3;rotatable=0;labelPosition=right;points=[];portConstraint=eastwest;" parent="SImTDQgY7ZbXBonXEjlb-24" vertex="1">
                    <mxGeometry y="26" width="160" height="8" as="geometry"/>
                </mxCell>
                <mxCell id="SImTDQgY7ZbXBonXEjlb-32" value="Relation" style="endArrow=open;html=1;endSize=12;startArrow=diamondThin;startSize=14;startFill=0;edgeStyle=orthogonalEdgeStyle;rounded=0;entryX=0.5;entryY=0;entryDx=0;entryDy=0;" parent="1" source="btQaIZ2AwmgtmuhM0MhC-1" target="SImTDQgY7ZbXBonXEjlb-24" edge="1">
                    <mxGeometry x="0.0805" relative="1" as="geometry">
                        <mxPoint x="424" y="560" as="sourcePoint"/>
                        <mxPoint x="584" y="560" as="targetPoint"/>
                        <mxPoint as="offset"/>
                    </mxGeometry>
                </mxCell>
                <mxCell id="SImTDQgY7ZbXBonXEjlb-33" value="0..n" style="edgeLabel;resizable=0;html=1;align=left;verticalAlign=top;" parent="SImTDQgY7ZbXBonXEjlb-32" connectable="0" vertex="1">
                    <mxGeometry x="-1" relative="1" as="geometry"/>
                </mxCell>
                <mxCell id="SImTDQgY7ZbXBonXEjlb-34" value="1" style="edgeLabel;resizable=0;html=1;align=right;verticalAlign=top;" parent="SImTDQgY7ZbXBonXEjlb-32" connectable="0" vertex="1">
                    <mxGeometry x="1" relative="1" as="geometry">
                        <mxPoint x="10" y="-30" as="offset"/>
                    </mxGeometry>
                </mxCell>
                <mxCell id="SImTDQgY7ZbXBonXEjlb-35" value="Relation" style="endArrow=open;html=1;endSize=12;startArrow=diamondThin;startSize=14;startFill=0;edgeStyle=orthogonalEdgeStyle;rounded=0;entryX=0.5;entryY=0;entryDx=0;entryDy=0;" parent="1" source="btQaIZ2AwmgtmuhM0MhC-1" target="SImTDQgY7ZbXBonXEjlb-16" edge="1">
                    <mxGeometry relative="1" as="geometry">
                        <mxPoint x="414" y="580" as="sourcePoint"/>
                        <mxPoint x="584" y="560" as="targetPoint"/>
                    </mxGeometry>
                </mxCell>
                <mxCell id="SImTDQgY7ZbXBonXEjlb-36" value="0..n" style="edgeLabel;resizable=0;html=1;align=left;verticalAlign=top;" parent="SImTDQgY7ZbXBonXEjlb-35" connectable="0" vertex="1">
                    <mxGeometry x="-1" relative="1" as="geometry">
                        <mxPoint y="10" as="offset"/>
                    </mxGeometry>
                </mxCell>
                <mxCell id="SImTDQgY7ZbXBonXEjlb-37" value="1" style="edgeLabel;resizable=0;html=1;align=right;verticalAlign=top;" parent="SImTDQgY7ZbXBonXEjlb-35" connectable="0" vertex="1">
                    <mxGeometry x="1" relative="1" as="geometry">
                        <mxPoint x="14" y="-30" as="offset"/>
                    </mxGeometry>
                </mxCell>
                <mxCell id="SImTDQgY7ZbXBonXEjlb-38" value="Relation" style="endArrow=open;html=1;endSize=12;startArrow=diamondThin;startSize=14;startFill=0;edgeStyle=orthogonalEdgeStyle;rounded=0;entryX=0.5;entryY=0;entryDx=0;entryDy=0;" parent="1" source="btQaIZ2AwmgtmuhM0MhC-1" target="SImTDQgY7ZbXBonXEjlb-8" edge="1">
                    <mxGeometry x="0.0588" relative="1" as="geometry">
                        <mxPoint x="424" y="560" as="sourcePoint"/>
                        <mxPoint x="584" y="560" as="targetPoint"/>
                        <mxPoint as="offset"/>
                    </mxGeometry>
                </mxCell>
                <mxCell id="SImTDQgY7ZbXBonXEjlb-39" value="0..n" style="edgeLabel;resizable=0;html=1;align=left;verticalAlign=top;" parent="SImTDQgY7ZbXBonXEjlb-38" connectable="0" vertex="1">
                    <mxGeometry x="-1" relative="1" as="geometry">
                        <mxPoint x="-20" as="offset"/>
                    </mxGeometry>
                </mxCell>
                <mxCell id="SImTDQgY7ZbXBonXEjlb-40" value="1" style="edgeLabel;resizable=0;html=1;align=right;verticalAlign=top;" parent="SImTDQgY7ZbXBonXEjlb-38" connectable="0" vertex="1">
                    <mxGeometry x="1" relative="1" as="geometry">
                        <mxPoint x="10" y="-30" as="offset"/>
                    </mxGeometry>
                </mxCell>
                <mxCell id="B0UJuBFFb7fX5z1xrysJ-8" value="BeersAdd" style="swimlane;fontStyle=1;align=center;verticalAlign=top;childLayout=stackLayout;horizontal=1;startSize=26;horizontalStack=0;resizeParent=1;resizeParentMax=0;resizeLast=0;collapsible=1;marginBottom=0;" parent="1" vertex="1">
                    <mxGeometry x="334" y="30" width="160" height="112" as="geometry"/>
                </mxCell>
                <mxCell id="B0UJuBFFb7fX5z1xrysJ-9" value="- beears: array" style="text;strokeColor=none;fillColor=none;align=left;verticalAlign=top;spacingLeft=4;spacingRight=4;overflow=hidden;rotatable=0;points=[[0,0.5],[1,0.5]];portConstraint=eastwest;" parent="B0UJuBFFb7fX5z1xrysJ-8" vertex="1">
                    <mxGeometry y="26" width="160" height="26" as="geometry"/>
                </mxCell>
                <mxCell id="B0UJuBFFb7fX5z1xrysJ-10" value="" style="line;strokeWidth=1;fillColor=none;align=left;verticalAlign=middle;spacingTop=-1;spacingLeft=3;spacingRight=3;rotatable=0;labelPosition=right;points=[];portConstraint=eastwest;" parent="B0UJuBFFb7fX5z1xrysJ-8" vertex="1">
                    <mxGeometry y="52" width="160" height="8" as="geometry"/>
                </mxCell>
                <mxCell id="B0UJuBFFb7fX5z1xrysJ-11" value="+ addBear(): void" style="text;strokeColor=none;fillColor=none;align=left;verticalAlign=top;spacingLeft=4;spacingRight=4;overflow=hidden;rotatable=0;points=[[0,0.5],[1,0.5]];portConstraint=eastwest;" parent="B0UJuBFFb7fX5z1xrysJ-8" vertex="1">
                    <mxGeometry y="60" width="160" height="26" as="geometry"/>
                </mxCell>
                <mxCell id="B0UJuBFFb7fX5z1xrysJ-12" value="+ foreachBeears(): string" style="text;strokeColor=none;fillColor=none;align=left;verticalAlign=top;spacingLeft=4;spacingRight=4;overflow=hidden;rotatable=0;points=[[0,0.5],[1,0.5]];portConstraint=eastwest;" parent="B0UJuBFFb7fX5z1xrysJ-8" vertex="1">
                    <mxGeometry y="86" width="160" height="26" as="geometry"/>
                </mxCell>
                <mxCell id="B0UJuBFFb7fX5z1xrysJ-23" value="Relation" style="endArrow=open;html=1;endSize=12;startArrow=diamondThin;startSize=14;startFill=0;edgeStyle=orthogonalEdgeStyle;rounded=0;" parent="1" source="btQaIZ2AwmgtmuhM0MhC-1" target="B0UJuBFFb7fX5z1xrysJ-8" edge="1">
                    <mxGeometry relative="1" as="geometry">
                        <mxPoint x="260" y="300" as="sourcePoint"/>
                        <mxPoint x="490" y="260" as="targetPoint"/>
                    </mxGeometry>
                </mxCell>
                <mxCell id="B0UJuBFFb7fX5z1xrysJ-24" value="0..n" style="edgeLabel;resizable=0;html=1;align=left;verticalAlign=top;" parent="B0UJuBFFb7fX5z1xrysJ-23" connectable="0" vertex="1">
                    <mxGeometry x="-1" relative="1" as="geometry">
                        <mxPoint x="6" y="-30" as="offset"/>
                    </mxGeometry>
                </mxCell>
                <mxCell id="B0UJuBFFb7fX5z1xrysJ-25" value="1" style="edgeLabel;resizable=0;html=1;align=right;verticalAlign=top;" parent="B0UJuBFFb7fX5z1xrysJ-23" connectable="0" vertex="1">
                    <mxGeometry x="1" relative="1" as="geometry">
                        <mxPoint x="-14" y="8" as="offset"/>
                    </mxGeometry>
                </mxCell>
            </root>
        </mxGraphModel>
    </diagram>
</mxfile>